# xmcd CD database file
#
# Track frame offsets:
#	150
#	18593
#	32833
#	49620
#	80478
#	103578
#	126380
#	145968
#	160703
#	182945
#
# Disc length: 2705 seconds
#
# Revision: 0
# Processed by: cddbd v1.5.2PL0 Copyright (c) Steve Scherf et al.
# Submitted via: CDex 1.70beta2
#
DISCID=850a8f0a
DTITLE=Quncho - Equator
DYEAR=1994
DGENRE=Blues
TTITLE0=GROOVIN’
TTITLE1=UNDER　THE　BOARDWALK 
TTITLE2=JAMAICA　FAREWELL 
TTITLE3=ANOTHER　STAR
TTITLE4=CICADA
TTITLE5=FOR　ME　＆　YOU 
TTITLE6=TRISTE
TTITLE7=PASTIME　PARADISE 
TTITLE8=BIRD　OF　BEAUTY 
TTITLE9=UNTIL　THE　DAY　THAT　I　CAN　FLY 
EXTD=YEAR: 1994
EXTT0=
EXTT1=
EXTT2=
EXTT3=
EXTT4=
EXTT5=
EXTT6=
EXTT7=
EXTT8=
EXTT9=
PLAYORDER=
